<?xml version="1.0" encoding="utf-8"?><svg xml:space="preserve" viewBox="0 0 100 100" y="0" x="0" xmlns="http://www.w3.org/2000/svg" id="Layer_1" version="1.1" width="47px" height="47px" xmlns:xlink="http://www.w3.org/1999/xlink" style="width:100%;height:100%;background-size:initial;background-repeat-y:initial;background-repeat-x:initial;background-position-y:initial;background-position-x:initial;background-origin:initial;background-color:initial;background-clip:initial;background-attachment:initial;animation-play-state:paused" ><g class="ldl-scale" style="transform-origin:50% 50%;transform:rotate(0deg) scale(0.8, 0.8);animation-play-state:paused" ><ellipse fill="#e0e0e0" ry="32.5" rx="42" cy="50" cx="50" style="fill:rgb(153, 226, 208);animation-play-state:paused" ></ellipse>
<g opacity=".2" style="animation-play-state:paused" ><path fill="#666766" d="M59.5 28c4.9 1.2 9.6 3.4 13.4 6.7 3.8 3.3 6.7 7.9 7.3 13.1.7 5.1-1 10.4-4.2 14.4-.7 1-1.7 1.9-2.6 2.9-1 .8-1.9 1.7-3 2.4-2.1 1.5-4.4 2.7-6.7 3.6-4.8 1.8-9.9 2.7-15 2.5-5.1-.2-10.2-1.2-14.7-3.5-1.2-.5-2.2-1.2-3.3-1.9-1-.8-2.1-1.4-3-2.3-1-.8-1.9-1.7-2.7-2.7-.8-1-1.6-2-2.2-3.1-1.3-2.2-2.3-4.6-2.6-7.1-.2-.5-.2-1.1-.2-1.8 0-.6-.1-1.3 0-1.9.1-1.3.3-2.5.6-3.7-.3 1.2-.4 2.5-.4 3.7 0 .6.1 1.3.1 1.9 0 .6.1 1.2.2 1.9.4 2.5 1.4 4.8 2.8 6.9.6 1.1 1.5 2 2.2 3 .9.9 1.7 1.8 2.7 2.6.9.8 2 1.5 3 2.2 1.1.6 2.1 1.3 3.3 1.7 2.2 1.1 4.6 1.8 7 2.4 1.2.2 2.4.5 3.7.6l1.9.2 1.9.1c5 .2 10-.7 14.6-2.5 2.3-.9 4.5-2 6.5-3.5 1-.7 1.9-1.5 2.9-2.3.9-.9 1.8-1.7 2.5-2.7 3.1-3.8 4.6-8.9 4.1-13.8s-3.2-9.5-6.9-12.8c-3.8-3.5-8.4-5.8-13.2-7.2z" style="fill:rgb(102, 103, 102);animation-play-state:paused" ></path></g>
<path fill="#fff" d="M82.9 59.1c-5.2 8.2-16.2 10.4-29.3 2.2S37.9 42.1 43.1 33.9s16.2-10.4 29.3-2.2 15.7 19.2 10.5 27.4z" style="fill:rgb(255, 255, 255);animation-play-state:paused" ></path>
<path fill="#333" d="M59.9 33.6c-.2.5-.6.8-.8.7-.2-.1-.3-.6-.1-1.1.2-.5.6-.8.8-.7s.3.6.1 1.1z" style="fill:rgb(51, 51, 51);animation-play-state:paused" ></path>
<path fill="#333" d="M74.4 42.2c.2.5.2 1 0 1.1-.2.1-.6-.2-.8-.7-.2-.5-.2-1 0-1.1.3-.1.6.2.8.7z" style="fill:rgb(51, 51, 51);animation-play-state:paused" ></path>
<path fill="#333" d="M74.3 38.4c-.2.5-.5.9-.7.8-.3-.1-.3-.6-.2-1.1.2-.5.5-.9.7-.8.3.2.4.6.2 1.1z" style="fill:rgb(51, 51, 51);animation-play-state:paused" ></path>
<ellipse fill="#333" ry=".5" rx="1" cy="53.3" cx="73" transform="rotate(-81.732 72.954 53.279)" style="fill:rgb(51, 51, 51);animation-play-state:paused" ></ellipse>
<path fill="#333" d="M75.2 44.7c-.4.4-.8.5-1 .3-.2-.2 0-.7.4-1 .4-.4.8-.5 1-.3s0 .6-.4 1z" style="fill:rgb(51, 51, 51);animation-play-state:paused" ></path>
<ellipse fill="#333" ry=".5" rx="1" cy="54.2" cx="75" transform="matrix(.9999 -.0123 .0123 .9999 -.66 .927)" style="fill:rgb(51, 51, 51);animation-play-state:paused" ></ellipse>
<path fill="#333" d="M65.6 48.2c.3.4.4.8.2 1s-.6 0-.9-.4c-.3-.4-.4-.8-.2-1 .2-.2.6 0 .9.4z" style="fill:rgb(51, 51, 51);animation-play-state:paused" ></path>
<ellipse fill="#333" ry=".5" rx="1" cy="37.9" cx="54.4" transform="matrix(.00915 -1 1 .00915 15.964 91.924)" style="fill:rgb(51, 51, 51);animation-play-state:paused" ></ellipse>
<path fill="#333" d="M60 40c-.5.2-1 .1-1-.1-.1-.3.2-.6.7-.8s1-.1 1 .1c.2.3-.2.7-.7.8z" style="fill:rgb(51, 51, 51);animation-play-state:paused" ></path>
<path fill="#333" d="M69.1 44.6c-.4.3-.8.4-1 .2-.2-.2 0-.6.4-.9.4-.3.8-.4 1-.2.2.2 0 .6-.4.9z" style="fill:rgb(51, 51, 51);animation-play-state:paused" ></path>
<ellipse fill="#333" ry="1" rx=".5" cy="44.9" cx="57.6" transform="rotate(-7.285 57.574 44.881)" style="fill:rgb(51, 51, 51);animation-play-state:paused" ></ellipse>
<path fill="#333" d="M60.5 48.6c-.4.3-.9.4-1 .1s.1-.6.5-.9c.4-.3.9-.4 1-.1.1.2-.1.6-.5.9z" style="fill:rgb(51, 51, 51);animation-play-state:paused" ></path>
<path fill="#333" d="M69.5 33.5c-.5.1-1 .1-1.1-.2-.1-.3.3-.6.8-.7s1-.1 1.1.2c0 .2-.3.5-.8.7z" style="fill:rgb(51, 51, 51);animation-play-state:paused" ></path>
<path fill="#333" d="M56 46.1c-.5.3-.9.3-1.1.1-.1-.2.1-.6.6-.9.5-.3.9-.3 1.1-.1.1.2-.2.6-.6.9z" style="fill:rgb(51, 51, 51);animation-play-state:paused" ></path>
<ellipse fill="#333" ry=".5" rx=".9" cy="34.8" cx="72.3" transform="rotate(-7.666 72.308 34.832)" style="fill:rgb(51, 51, 51);animation-play-state:paused" ></ellipse>
<path fill="#333" d="M52.7 31.1c-.2.5-.5.8-.7.7-.2-.1-.3-.5-.1-1 .2-.5.5-.8.7-.7s.3.5.1 1z" style="fill:rgb(51, 51, 51);animation-play-state:paused" ></path>
<path fill="#333" d="M71 46.7c.2.5.1 1-.2 1.1-.3.1-.6-.3-.7-.8-.2-.5-.1-1 .2-1.1.2 0 .5.3.7.8z" style="fill:rgb(51, 51, 51);animation-play-state:paused" ></path>
<g style="animation-play-state:paused" ><path fill="#f47e5f" d="M21.4 53.1l-9.2-3.7c-.8-.3-.9-1.5-.1-1.9l3.7-1.8c.3-.1.5-.4.5-.7l.7-3c.2-.9 1.5-1.1 1.9-.2l4.9 9.8c.3.7-.2 1.5-.9 1.5h-1.2c-.1.1-.2 0-.3 0z" style="fill:rgb(244, 126, 95);animation-play-state:paused" ></path>
<path fill="#f7b26a" d="M27.3 51.3c.2.2.4.4.6.7.2.2.4.5.6.7.2.2.5.4.7.6.2.2.5.4.7.6.2.2.2.7.4.9.2.2.6.2.9.4.2.2.5.3.8.5.2.2.2.8.5.9.3.2.4.5.7.6.3.2.6.3.8.4.3.2.7 0 1 .2.3.2.6.3.8.4.3.2.5.4.7.6.3.2.4.6.6.8.3.1.6.3.8.4.3.1.8-.1 1.1 0 .3.1.5.4.8.5l.9.3c.3.1.5.4.8.5.3.1.7.1 1 .2l.9.3.9.3c.3.1.6.3.9.4.3.1.7-.1 1-.1.3.1.6.5.9.5.3.1.6.4.9.5.3.1.7-.1 1 0 .3 0 .6.1 1 .2.3 0 .7-.3 1-.3.3 0 .6.4.9.4.3.1.4.4.7.6.3.1.6.2.8.3l.6.6c.2.2.6.3.8.6.1.3.4.6.5.9.1.3-.1.7-.1 1 0 .3-.2.6-.2.9v.9c-.1.3-.5.4-.7.7-.1.3-.3.5-.5.7-.2.2-.3.5-.5.7-.2.2-.2.8-.5.9-.3.1-.6.3-.9.3-.3.1-.7 0-1 0-.3 0-.6.1-.9 0h-.3v-.1h-1c-.3-.1-.6-.3-.9-.3-.3-.1-.6-.2-.9-.2-.3-.1-.7.1-1 0-.3-.1-.6-.1-.9-.2-.3-.1-.5-.6-.8-.7-.3-.1-.6-.1-.9-.2-.3-.1-.7 0-1-.1-.3-.1-.5-.4-.8-.5-.3-.1-.5-.3-.8-.4-.3-.1-.6-.1-.9-.2l-.9-.3c-.3-.1-.4-.6-.7-.7-.3-.1-.8.3-1.1.1-.3-.1-.3-.8-.6-.9-.3-.1-.8.2-1.1.1-.3-.1-.4-.7-.6-.8-.3-.2-.5-.3-.8-.5-.3-.2-.6-.3-.8-.4-.3-.2-.6-.1-.9-.3-.3-.2-.4-.5-.7-.7-.3-.2-.7-.1-1-.2-.3-.2-.2-.7-.5-.9-.3-.2-.8 0-1-.2-.2-.2-.4-.6-.6-.7-.2-.2-.6-.3-.8-.4-.2-.2-.2-.7-.5-.9-.2-.2-.6-.2-.8-.4-.2-.2-.6-.3-.8-.5-.2-.2-.5-.4-.7-.6-.2-.2-.4-.5-.6-.7-.2-.2-.1-.7-.4-1-.2-.2-.9 0-1.1-.2-.2-.2-.4-.5-.6-.7-.2-.2-.3-.5-.5-.8-.2-.2-.5-.4-.7-.6-.2-.3-.1-.8-.3-1-.1-.3-.3-.6-.3-.9-.1-.3 0-.7.1-1 0-.3-.1-.7 0-1 .1-.3.4-.5.6-.8.2-.3.4-.4.7-.7.2-.2.5-.3.8-.4.3-.1.5-.6.8-.7.3-.1.7-.2 1-.2.3 0 .6.5.9.5.3.1.5.2.8.4.3.2.6.5.8.7.3.2.4-.3.4-.3z" style="fill:rgb(247, 178, 106);animation-play-state:paused" ></path></g>
<g style="animation-play-state:paused" ><path fill="#849b87" d="M49.5 29.5l-.8 4.7c-.2 1.3-1 2.4-2.2 3l-15.3 8c-1.3.7-2.9-.4-2.7-1.9l1.6-13.5c.2-1.9 1.7-3.4 3.6-3.6l11.1-1.4c2.9-.5 5.2 1.9 4.7 4.7z" style="fill:rgb(132, 155, 135);animation-play-state:paused" ></path>
<path fill="#acbd81" d="M32.2 30.8l13.9-2.7c1.2-.2 2.4 0 3.5.5-.1-2.4-2.2-4.3-4.7-4L33.8 26c-1.9.2-3.4 1.7-3.6 3.6l-.2 2.2c.6-.5 1.4-.8 2.2-1z" style="fill:rgb(172, 189, 129);animation-play-state:paused" ></path></g>
<g style="animation-play-state:paused" ><path fill="#f47e5f" d="M25.7 42.9l-9.2-3.7c-.8-.3-.9-1.5-.1-1.9l3.7-1.8c.3-.1.5-.4.5-.7l.7-3c.2-.9 1.5-1.1 1.9-.2l4.9 9.8c.3.7-.2 1.5-.9 1.5H26c0 .1-.1.1-.3 0z" style="fill:rgb(244, 126, 95);animation-play-state:paused" ></path>
<path fill="#f7b26a" d="M31.7 41.1c.2.2.4.4.6.7.2.2.4.5.6.7.2.2.5.4.7.6.2.2.5.4.7.6.2.2.2.7.4.9.2.2.6.2.9.4.2.2.5.3.8.5.2.2.2.8.5.9.3.2.4.5.7.6.3.2.6.3.8.4.3.2.7 0 1 .2.3.2.6.3.8.4.3.2.5.4.7.6.3.2.4.6.6.8.3.1.6.3.8.4.3.1.8-.1 1.1 0 .3.1.5.4.8.5l.9.3c.3.1.5.4.8.5.3.1.7.1 1 .2l.9.3.9.3c.3.1.6.3.9.4.3.1.7-.1 1-.1.3.1.6.5.9.5.3.1.6.4.9.5.3.1.7-.1 1 0 .3 0 .6.1 1 .2.3 0 .7-.3 1-.3.3 0 .6.4.9.4.3.1.4.4.7.6.3.1.6.2.8.3l.6.6c.2.2.6.3.8.6.1.3.4.6.5.9.1.3-.1.7-.1 1 0 .3-.2.6-.2.9v.9c-.1.3-.5.4-.7.7-.1.3-.3.5-.5.7-.2.2-.3.5-.5.7-.2.2-.2.8-.5.9-.3.1-.6.3-.9.3-.3.1-.7 0-1 0-.3 0-.6.1-.9 0h-.3v-.1h-1c-.3-.1-.6-.3-.9-.3-.3-.1-.6-.2-.9-.2-.3-.1-.7.1-1 0-.3-.1-.6-.1-.9-.2-.3-.1-.5-.6-.8-.7-.3-.1-.6-.1-.9-.2-.3-.1-.7 0-1-.1s-.5-.4-.8-.5c-.3-.1-.5-.3-.8-.4-.3-.1-.6-.1-.9-.2l-.9-.3c-.3-.1-.4-.6-.7-.7-.3-.1-.8.3-1.1.1-.3-.1-.3-.8-.6-.9-.3-.1-.8.2-1.1.1-.3-.1-.4-.7-.6-.8-.3-.2-.5-.3-.8-.5-.3-.2-.6-.3-.8-.4-.3-.2-.6-.1-.9-.3-.3-.2-.4-.5-.7-.7-.3-.2-.7-.1-1-.2-.3-.2-.2-.7-.5-.9-.3-.2-.8 0-1-.2-.2-.2-.4-.6-.6-.7-.2-.2-.6-.3-.8-.4-.2-.2-.2-.7-.5-.9-.2-.2-.6-.2-.8-.4-.2-.2-.6-.3-.8-.5-.2-.2-.5-.4-.7-.6-.2-.2-.4-.5-.6-.7-.2-.2-.1-.7-.4-1-.2-.2-.9 0-1.1-.2-.2-.2-.4-.5-.6-.7-.2-.2-.3-.5-.5-.8-.2-.2-.5-.4-.7-.6-.2-.3-.1-.8-.3-1-.1-.3-.3-.6-.3-.9-.1-.3 0-.7.1-1 0-.3-.1-.7 0-1 .1-.3.4-.5.6-.8.2-.3.4-.4.7-.7.2-.2.5-.3.8-.4.3-.1.5-.6.8-.7.3-.1.7-.2 1-.2.3 0 .6.5.9.5.3.1.5.2.8.4.3.2.6.5.8.7.3.2.4-.3.4-.3z" style="fill:rgb(247, 178, 106);animation-play-state:paused" ></path></g>
<metadata xmlns:d="https://loading.io/stock/" style="animation-play-state:paused" ><d:name style="animation-play-state:paused" >fried shrimp</d:name>
<d:tags style="animation-play-state:paused" >fried shrimp,crispy shrimp,tendon,tenbura,japanese cuisine</d:tags>
<d:license style="animation-play-state:paused" >by</d:license>
<d:slug style="animation-play-state:paused" >ox9ses</d:slug></metadata></g><!-- generated by https://loading.io/ --></svg>