<?xml version="1.0" encoding="utf-8"?><svg xml:space="preserve" viewBox="0 0 100 100" y="0" x="0" xmlns="http://www.w3.org/2000/svg" id="Layer_1" version="1.1" width="47px" height="47px" xmlns:xlink="http://www.w3.org/1999/xlink" style="width:100%;height:100%;background-size:initial;background-repeat-y:initial;background-repeat-x:initial;background-position-y:initial;background-position-x:initial;background-origin:initial;background-color:initial;background-clip:initial;background-attachment:initial;animation-play-state:paused" ><g class="ldl-scale" style="transform-origin:50% 50%;transform:rotate(0deg) scale(0.8, 0.8);animation-play-state:paused" ><path fill="#666766" d="M67.3 82.9c0 9.2-33.3 9.2-33.3 0V64.2c0-9 33.3-9 33.3 0v18.7z" style="fill:rgb(102, 103, 102);animation-play-state:paused" ></path>
<ellipse fill="#e15c64" ry="17.3" rx="40" cy="27.6" cx="50" style="fill:rgb(147, 86, 220);animation-play-state:paused" ></ellipse>
<path fill="#f4e6c8" d="M86.6 34.9c-.1-.3-.4-.5-.8-.8-.4-.3-.9-.5-1.2-.7-.4-.3-.8-.5-1.2-.7-5-3.2-12.3-5.7-21-6.9h-.1c-1-.1-2-.3-3-.4-1-.1-1.9-.2-2.9-.2h-.2c-1-.1-1.9-.1-2.9-.1h-.1c-1 0-2-.1-3-.1s-2 0-3 .1h-.1c-1 0-1.9.1-2.9.1H44c-1 .1-1.9.1-2.9.2s-2 .2-3 .4H38c-8.7 1.2-16.1 3.7-21 6.9-.4.2-.8.5-1.2.7-.3.2-.8.4-1.2.7-.4.2-.7.5-.8.8-.2.5 0 1.6 0 2.1v1.2C13.3 53 25.3 64.9 40 64.9h19.9c14.7 0 26.7-11.9 26.7-26.7V37c0-.6.2-1.6 0-2.1z" style="fill:rgb(244, 230, 200);animation-play-state:paused" ></path>
<g style="animation-play-state:paused" ><path fill="#333" d="M10 26.9v0z" style="fill:rgb(51, 51, 51);animation-play-state:paused" ></path>
<path fill="#333" d="M50 44.9c-22.1 0-40-7.8-40-17.3v16.7C10 63.4 25.5 79 44.7 79h10.7C74.5 78.9 90 63.4 90 44.2V27.6c0 9.5-17.9 17.3-40 17.3z" style="fill:rgb(51, 51, 51);animation-play-state:paused" ></path>
<path fill="#333" d="M90 26.9v.7-.7z" style="fill:rgb(51, 51, 51);animation-play-state:paused" ></path></g>
<path fill="#fff" d="M68.9 32c-.2-.4-.4-.7-.7-1l-6.1-5.9c-1.3-1.2-3.3-1.2-4.5.1l-5.9 6.1c-.2.2-.4.5-.5.7h17.7z" style="fill:rgb(255, 255, 255);animation-play-state:paused" ></path>
<path fill="#fff" d="M42.8 35c-.1-.3-.3-.5-.5-.8l-4.7-4.6c-1-.9-2.5-.9-3.4.1l-4.6 4.7c-.2.2-.3.4-.4.6h13.6z" style="fill:rgb(255, 255, 255);animation-play-state:paused" ></path>
<path fill="#fff" d="M61.8 40c-.1-.3-.3-.5-.5-.8l-4.7-4.6c-1-.9-2.5-.9-3.4.1l-4.6 4.7c-.2.2-.3.4-.4.6h13.6z" style="fill:rgb(255, 255, 255);animation-play-state:paused" ></path>
<metadata xmlns:d="https://loading.io/stock/" style="animation-play-state:paused" ><d:name style="animation-play-state:paused" >miso soup</d:name>
<d:tags style="animation-play-state:paused" >miso soup,fish bone soup,chowder,pottage,japanese food,misoshiru</d:tags>
<d:license style="animation-play-state:paused" >by</d:license>
<d:slug style="animation-play-state:paused" >zc4u1h</d:slug></metadata></g><!-- generated by https://loading.io/ --></svg>